<svg xmlns="http://www.w3.org/2000/svg" width="1384" height="433">
    <g fill="none" fill-rule="nonzero">
        <path fill="#252627" d="M304 431.9c-72.1-2-125.8-20.4-160-54.9-26.2-26.4-36.1-51.1-55.6-138.2-11.6-52.4-15-64-25.3-88-15.9-37.3-22-47.6-42.5-72.8C12.3 67.8 6.4 58.1 4.2 51 1.8 43.5-.5 8.2 1.2 6.5 4.1 3.5 87.7 0 152.4 0c52.3 0 178.9 3.9 248.1 7.6 62.9 3.3 125 8.6 177 14.9 31.5 3.8 39.2 4.4 69.2 5.4 52.7 1.8 102.4-.9 165.8-8.9 41.8-5.3 67-7.4 159.5-13.6 71.5-4.8 100.7-5.2 177-2.6 32.7 1.2 76.4 2.4 97 2.7 63.1 1 130.5 4.1 132.5 6.1 2.4 2.4 4.7 14.6 4.6 24.9 0 15.4-4.2 28.6-13.3 42.5-1.7 2.5-13 14.4-25.2 26.5-23.8 23.6-26.7 27.4-32.7 43-4.5 11.6-8 25.7-15.9 65-9.2 45.6-14.1 66.9-19.4 85.7-11.1 38.9-23.6 63.2-42.7 83.2-24.2 25.4-51.6 35.5-115.4 42.6-64.5 7.1-135 8.6-169.5 3.4-35.2-5.2-68.7-17.3-93-33.5-11.6-7.7-30.8-26.5-37.2-36.4-14.1-21.9-31.1-65.3-42.8-110-2.2-8.2-6.7-27.4-10-42.5-9.1-41.7-13.5-55.1-22.5-69.5-8.7-14.1-20.4-24.1-33.2-28.6-15.8-5.6-43.9-1.8-59 8-8.8 5.7-16.5 14.9-22.2 26.5-7.3 14.9-11.3 30.4-20.6 79.6-8.1 43-11.1 53.6-23.1 82.3-13.6 32.6-24.5 52.4-38.5 69.6-21.9 27.3-48.9 43.9-80.4 49.4-9.1 1.7-40.6 4.7-70 6.8-23.4 1.6-66.7 2.5-92.5 1.8z"/>
        <path fill="#FFF" d="M190.576 344.946c-2.435-3.172-4.352-5.886-5.176-7.446a70.118 70.118 0 0 0-1.16-2.186c-6.745-10.972-13.148-23.75-19.216-38.35-.331-.77-.647-1.509-.924-2.164a37.704 37.704 0 0 1-1.566-3.976 414.778 414.778 0 0 1-1.752-4.504c-.407-.426-.763-1.304-.781-2.06a459.789 459.789 0 0 1-3.015-8.25c-1.17-3.117-2.654-7.474-4.04-11.848l-.346-1.062c-9.71-29.758-16.048-58.412-18.82-85.001-.453-3.888-.75-7.271-.944-10.89a284.607 284.607 0 0 1-.536-10.709c-.9-30.3 2-48 10.9-66.4 4.3-8.9 6.2-11.6 13.2-18.6 4.909-4.909 8.111-7.582 12.36-10.005 3.826-2.4 7.926-4.273 12.719-5.772 7.482-2.575 15.86-3.846 31.221-5.223 63.5-5.6 119.5-5.8 173.3-.5 10.7 1.1 27.6 2.6 37.5 3.5 25.577 2.265 45.898 5.243 62.362 9.332 1.938.397 3.171.675 3.338.768.067.05.205.118.401.198 2.611.701 5.12 1.433 7.535 2.198 2.552.682 4.593 1.366 7.291 2.517 9.525 3.58 17.419 7.796 24.173 12.787 15.823 11.695 24.251 30.194 26.238 58.231 1.245 11.305 1.112 21.437-.296 32.642-.609 6.364-1.664 13.889-3.442 25.827-2.375 15.74-4.533 29.232-6.587 40.944a786.15 786.15 0 0 1-.913 5.556 201.67 201.67 0 0 1-1.323 6.705c-4.466 23.462-8.614 38.864-13.712 51.525-.307.86-.763 1.95-1.334 3.2a141.442 141.442 0 0 1-3.631 7.77c-5.5 11.1-19.9 30.4-29.2 39.4-20.2 19.3-45.7 28.8-90.9 33.9-10.638 1.189-23.878 2.21-37.774 3-3.232.247-5.98.46-7.726.6-1.968.139-7.818.308-15.254.472-16.006.59-31.486.83-43.553.625-3.824.011-6.213-.017-6.293-.097-.014-.021-.048-.043-.1-.065-3.58-.125-6.715-.302-9.3-.535-24.3-2.2-43.9-6.3-54.9-11.5-13.673-6.496-26.336-17.986-38.024-34.554zM881.442 341.713c-2.34-3.076-4.173-5.714-4.942-7.213-.9-1.6-2.7-4.8-4.1-7-1.081-1.77-3.08-5.592-5.273-10.007-3.019-5.92-5.925-12.174-8.696-18.697L857.2 296c-.887-1.848-2.157-5.117-3.243-8.272a376.271 376.271 0 0 1-4.222-11.543c-.506-1.097-1.595-4.324-2.632-7.834-11.145-34.354-18.492-72.681-19.703-107.851-1.142-31.69 4.237-47.803 23.289-67.816 1.572-1.744 3.362-3.531 5.329-5.335 13.29-12.546 31.08-23.358 49.582-30.249 18.16-6.64 43.117-11.123 75.927-13.603 6.798-.856 17.336-1.412 32.232-1.715a1072.1 1072.1 0 0 1 20.041-.482c75.5-1.1 134.7 4.6 164.9 15.9a102.82 102.82 0 0 1 8.231 3.513 73.394 73.394 0 0 1 4.77 2.48c12.534 7.033 21.187 16.315 26.565 28.528l.134.279c.725 1.527 1.403 3.296 2.044 5.348a76.03 76.03 0 0 1 1.456 4.852c3.7 13.8 4.6 22.6 4.5 46.3-.008 1.959-.025 3.87-.054 5.744-.052 8.084-.301 15.454-.746 19.256l-.134 1.117c-1.083 14.377-3.217 28.329-6.966 46.883-3.919 19.727-11.367 46.292-18.828 68.384-.692 2.505-1.825 5.683-2.671 7.715a429.139 429.139 0 0 1-2.012 5.543c-.107.796-.967 3.227-2.089 5.658-.295.698-.605 1.425-.91 2.137a205.656 205.656 0 0 1-3.19 7.563c-15.1 33.7-36.9 54.3-64.8 61.4-8.3 2.1-31.1 5.3-55.5 7.7-3.032.293-7.633.566-13.278.81l-2.222.19c-2.226.205-13.072.446-26.397.654-10.915.218-22.461.357-33.042.395-15.224.128-27.428.145-27.661-.049-.048-.048-.318-.114-.767-.192-3.494-.102-6.279-.237-8.133-.408-45.4-4.3-68.7-14.2-88.3-37.7a139.821 139.821 0 0 1-7.258-9.587z"/>
    </g>
</svg>
