<svg xmlns="http://www.w3.org/2000/svg" width="1384" height="433">
    <g fill="none" fill-rule="evenodd">
        <path fill="#252627" fill-rule="nonzero" d="M304 431.9c-72.1-2-125.8-20.4-160-54.9-26.2-26.4-36.1-51.1-55.6-138.2-11.6-52.4-15-64-25.3-88-15.9-37.3-22-47.6-42.5-72.8C12.3 67.8 6.4 58.1 4.2 51 1.8 43.5-.5 8.2 1.2 6.5 4.1 3.5 87.7 0 152.4 0c52.3 0 178.9 3.9 248.1 7.6 62.9 3.3 125 8.6 177 14.9 31.5 3.8 39.2 4.4 69.2 5.4 52.7 1.8 102.4-.9 165.8-8.9 41.8-5.3 67-7.4 159.5-13.6 71.5-4.8 100.7-5.2 177-2.6 32.7 1.2 76.4 2.4 97 2.7 63.1 1 130.5 4.1 132.5 6.1 2.4 2.4 4.7 14.6 4.6 24.9 0 15.4-4.2 28.6-13.3 42.5-1.7 2.5-13 14.4-25.2 26.5-23.8 23.6-26.7 27.4-32.7 43-4.5 11.6-8 25.7-15.9 65-9.2 45.6-14.1 66.9-19.4 85.7-11.1 38.9-23.6 63.2-42.7 83.2-24.2 25.4-51.6 35.5-115.4 42.6-64.5 7.1-135 8.6-169.5 3.4-35.2-5.2-68.7-17.3-93-33.5-11.6-7.7-30.8-26.5-37.2-36.4-14.1-21.9-31.1-65.3-42.8-110-2.2-8.2-6.7-27.4-10-42.5-9.1-41.7-13.5-55.1-22.5-69.5-8.7-14.1-20.4-24.1-33.2-28.6-15.8-5.6-43.9-1.8-59 8-8.8 5.7-16.5 14.9-22.2 26.5-7.3 14.9-11.3 30.4-20.6 79.6-8.1 43-11.1 53.6-23.1 82.3-13.6 32.6-24.5 52.4-38.5 69.6-21.9 27.3-48.9 43.9-80.4 49.4-9.1 1.7-40.6 4.7-70 6.8-23.4 1.6-66.7 2.5-92.5 1.8z"/>
        <g fill-rule="nonzero">
            <path fill="#EAEAEA" d="M283.5 391c-24.3-2.2-43.9-6.3-54.9-11.5-30.1-14.3-55.3-52.8-76-116.4-12.4-38-19.3-74.2-20.3-106.6-.9-30.3 2-48 10.9-66.4 4.3-8.9 6.2-11.6 13.2-18.6 6.4-6.4 9.9-9 16.6-12.2 10.6-5.2 18.5-6.9 39.7-8.8 63.5-5.6 119.5-5.8 173.3-.5 10.7 1.1 27.6 2.6 37.5 3.5 54.2 4.8 84.8 12.8 105.1 27.8 18.4 13.6 26.8 36.4 26.7 72.7 0 14.1-.7 20.5-4.2 44-10.2 67.6-16.4 93.7-27.5 115.7-5.5 11.1-19.9 30.4-29.2 39.4-20.2 19.3-45.7 28.8-90.9 33.9-34.9 3.9-97.8 6-120 4z"/>
            <path fill="#FFF" d="M292.9 391.6c-.2-.3-4.4-.7-9.4-1.1-11.3-.8-13.4-1-27.3-3.5-22.3-4-32.3-8.4-47.1-20.9-5.5-4.7-20.9-23.3-23.7-28.6-.8-1.6-2.6-4.8-3.9-7-2.8-4.6-11.2-21.3-13.7-27.1-.9-2.1-2.6-6-3.7-8.6-1.2-2.6-2.1-5.4-2.1-6.2 0-.8-.4-1.8-1-2.1-.5-.3-1-1.4-1-2.3 0-.9-.6-2.9-1.4-4.3-1.5-2.9-5.7-15.3-8.1-23.9-.9-3-2-6.8-2.4-8.5-.9-3.1-6.4-24.8-8.1-32-.9-4-3.9-19.7-4.5-24.5-2.6-18.2-3-23.2-3-42 .1-19.7.4-24.3 3-36.1 3.9-17.6 10.4-30.7 20.6-40.9 14.5-14.7 25.9-18.9 58.5-21.5 36.8-3 57.3-3.8 91.4-3.9 34 0 55 1 82 3.9 6.6.7 19.2 1.8 32.5 2.9 12.6 1.1 18.1 1.6 21.5 2.1 1.9.2 5.5.7 8 1 6.4.7 38.3 6.6 39.2 7.1.4.3 3.3 1.2 6.4 2 6 1.5 8.6 2.6 19.4 7.9 9.5 4.6 13.8 7.6 19.9 13.6 9.3 9.4 13.8 18.4 17 34.2 4.5 22.1 4.9 37.6 1.7 57.4-.4 2.1-.8 5.2-1.1 6.8-.2 1.7-1.3 9.2-2.4 16.7-1.1 7.5-2.3 15.2-2.5 17-.4 3-3.2 20.6-4 25.3-1.1 6.3-4.1 19.5-6.7 29.5-5 19.9-6.1 23.5-7 24.5-.5.5-.9 1.6-.9 2.5 0 2.5-8 17.8-13.5 25.9-10.7 15.8-21.3 27.2-32.5 35.3-6.7 4.8-8 5.6-14 8.4-8.6 4-9.1 4.2-15.5 6.3-16.6 5.3-41.4 9.5-68 11.6-9.3.7-22.5 1.7-27.5 2.1-7.1.5-64.7 1.4-65.1 1zm66.4-18.5c18.1-.5 33.1-1.1 33.3-1.4.5-.5-173.7-297-175.7-299.2-1.5-1.6-16.7 2.1-24.7 6-32.6 16.2-43.7 58.5-32.6 124.4C166 241 180.7 286 196.2 315c11.1 20.9 25.8 38.6 38.1 45.9 14.4 8.5 25.1 10.9 54.7 12 28.6 1.1 33.3 1.1 70.3.2z"/>
        </g>
        <path fill="#EAEAEA" fill-rule="nonzero" d="M977 389c-45.4-4.3-68.7-14.2-88.3-37.7-32.4-39-58.9-121.1-61.3-190.8-1.2-33.3 4.8-49.4 26.3-70.9 13.5-13.5 32.3-25.2 51.9-32.5 26.8-9.8 68.4-14.9 128.2-15.8 75.5-1.1 134.7 4.6 164.9 15.9 23.8 9 37.4 23.1 43.2 45 3.7 13.8 4.6 22.6 4.5 46.3-.1 26-2 43.8-7.9 73-5.9 29.7-19.8 74.9-29.7 97-15.1 33.7-36.9 54.3-64.8 61.4-8.3 2.1-31.1 5.3-55.5 7.7-18.6 1.8-96.3 2.8-111.5 1.4z"/>
        <path fill="#FFF" fill-rule="nonzero" d="M985.9 389.6c-.2-.2-4.2-.7-8.9-1.1-9.1-.7-9.5-.7-21-2.5-27.7-4.1-46.4-12.9-61.7-29-6.6-7-15.8-18.6-17.8-22.5-.9-1.6-2.7-4.8-4.1-7-2.2-3.6-8.2-15.7-11.9-24-.7-1.6-2.2-5-3.3-7.5-1.2-2.5-3.1-7.6-4.3-11.5-1.2-3.8-2.5-7.5-3-8-.4-.6-1.7-4.4-2.9-8.5-1.1-4.1-2.5-8.8-3-10.5-3.2-11.2-8.5-34.5-11-48.5-4.2-24.3-5.1-32.3-5.4-52-.6-28.6 3.9-41.6 21.6-62.6 10.4-12.5 33.1-27.8 52.3-35.4 13.1-5.2 38.1-11 55-12.6 2.8-.2 5.9-.7 7.1-.9 1.1-.3 5-.7 8.5-1 3.5-.3 7.8-.8 9.4-1 11.1-1.4 32.2-2 66-2 39 0 58.5.7 82 3 2.8.3 7.5.8 10.5 1 21.2 2.1 46.9 7.3 60.5 12.5 17.7 6.6 30.2 17.9 37.9 34 2.8 5.9 4.9 15.4 6.9 31 1.3 9.9 1.4 41.1.3 50.5-4.3 36.1-9.7 63.7-17.1 87-.7 2.2-2 6.7-3 10s-2.4 7.7-3.1 9.8c-.8 2-1.9 5.8-2.4 8.3-.6 2.6-2 6.6-3 9-1.1 2.3-2 4.8-2 5.4 0 .6-.9 3.2-2.1 5.8-1.1 2.6-2.4 5.6-2.9 6.7-8.3 19.5-19.9 36.3-32.2 46.6-13.3 11.2-30.1 18.2-49.1 20.4-2.3.3-7.8 1-12.2 1.6-12.4 1.7-12.7 1.7-19 2.3-7.5.7-18.6 1.7-24.5 2.2-6.5.6-86.5 1.5-87.1 1zm83.6-22.6c15.8-1.4 38.4-4 42.2-4.8l3.3-.7-84.1-143.5C984.7 139.1 946.4 74.1 946 73.6c-1.1-1.1-13.7 1.7-25.5 5.6-34.8 11.6-64 38.6-69.6 64.3-2.8 13.2-.9 46.7 4.2 73.3 10.1 53.1 29.4 99 51.3 122 10.8 11.3 20.4 17.5 34.3 22.1 8.2 2.6 28.2 5.9 42.5 7.1 13.6 1 71 .4 86.3-1z"/>
    </g>
</svg>
